<?xml version="1.0" encoding="utf-8"?>
<!-- Generator: Adobe Illustrator 26.1.0, SVG Export Plug-In . SVG Version: 6.00 Build 0)  -->
<svg version="1.1" id="Vrstva_1" xmlns="http://www.w3.org/2000/svg" xmlns:xlink="http://www.w3.org/1999/xlink" x="0px" y="0px"
	 viewBox="0 0 841.89 595.28" style="enable-background:new 0 0 841.89 595.28;" xml:space="preserve">
<style type="text/css">
	.st0{fill:#4F9FD8;}
	.st1{fill:#252022;}
	.st2{fill:#52A0D8;}
</style>
<path class="st0" d="M591.97,294.99c21.24,0,39.75,0,61.08,0c0,0-2.91,221.1-2.91,221.1c0,0-0.07,15-0.07,15
	c-69.54,0-137.64,0-205.35-1.55c-30.69-0.7-53.14-29.93-53.47-64.14c-1.01-104.48-1.37-208.98,0.04-313.45
	c0.69-51.45,22.15-66.86,83.72-66.86c0,0,8.06,0,8.06,0V391.2c0,0,0,0,0,0c29.17,0,44.8,0,70.95,0c0,0,0,0,0,0V85.43c0,0,0,0,0,0
	c81.46,0,157.96-0.51,234.45,0.31c22.78,0.25,37.01,16.08,45.05,35.63c4.84,11.77,7.22,25.35,7.3,38.14
	c0.58,98.68,1.48,197.38-0.07,296.03c-0.99,63.18-34.68,75.55-115.17,75.55v-236.1c30.1,0,12.9,0,31.69,0c0,0,26.52,0,26.53,0
	c0-20.74,0-33.2,0-57.34c0,0-2.44-0.17-2.44-0.17l-189.38,0.22C591.97,260.58,591.97,275.09,591.97,294.99z"/>
<path class="st1" d="M77.43,343.35c-24.18,0.56-51.15,0-76.63,0c0-50.95-2.6-103.74,22.46-150.53
	c29.58-55.25,74.83-89.08,138.41-89.91c65.57-0.85,112.13,33.24,143.05,89.82c13.44,24.6,20.68,51.65,21.34,78.99
	c1.63,67.93,0.89,139.5,0.89,209.9c-26.06,0-46.4,0-75.42,0c0-53.77,0.13-108.41-0.06-161.56c-0.07-20.29,1.03-40.84-1.7-60.82
	c-5.89-43.05-40.76-78.5-78.09-82.18c-39.86-3.93-81.97,19.68-89.88,67.37C75.94,279.74,77.43,306.34,77.43,343.35z"/>
<path class="st2" d="M71.63,481.91H6.98c-3.2,0-5.8-2.6-5.8-5.8v-64.65c0-3.2,2.6-5.8,5.8-5.8h64.65c3.2,0,5.8,2.6,5.8,5.8v64.65
	C77.43,479.31,74.83,481.91,71.63,481.91z"/>
</svg>
